<?xml version="1.0" encoding="utf-8"?>
<!-- Generator: Adobe Illustrator 22.1.0, SVG Export Plug-In . SVG Version: 6.00 Build 0)  -->
<svg version="1.1" id="Layer_1" xmlns="http://www.w3.org/2000/svg" xmlns:xlink="http://www.w3.org/1999/xlink" x="0px" y="0px"
	 viewBox="0 0 9665 4500" style="enable-background:new 0 0 9665 4500;" xml:space="preserve">
<style type="text/css">
	.st0{font-family:'BelleroseLight';}
	.st1{font-size:207.4483px;}
	.st2{fill-rule:evenodd;clip-rule:evenodd;fill:#FFFFFF;}
	.st3{fill-rule:evenodd;clip-rule:evenodd;fill:#B1B6C0;}
	.st4{fill-rule:evenodd;clip-rule:evenodd;fill:#47BAEC;}
	.st5{fill:#FFFFFF;stroke:#FFFFFF;stroke-width:5;}
	.st6{fill:#47BAEC;stroke:#47BAEC;stroke-width:5;stroke-miterlimit:10;}
</style>
<text transform="matrix(1 0 0 2 1087.0547 773.9253)" class="st0 st1"> </text>
<text transform="matrix(1 0 0 2 1794.9849 773.9253)" class="st0 st1"> </text>
<g>
	<path class="st2" d="M2119.7,3253.4c-141,54.8-294.3,84.9-454.6,84.9c-630.1,0-1152-464.2-1242.4-1069.2l540.7,313.6
		c140.6,196.7,361.9,331.9,615.5,357.1L2119.7,3253.4L2119.7,3253.4z M1665.1,825.7c160,0,313,30,453.7,84.5L1572.6,1225
		c-246.8,26.4-462.4,156.9-602.2,346.9l-546.3,314.7C518,1285.6,1037.9,825.7,1665.1,825.7z"/>
	<path class="st3" d="M2601.3,1244.5c199,222.3,320.1,515.8,320.1,837.5c0,316.9-117.4,606.3-311.1,827.4l-350.8-203.2
		c164.8-157,267.6-378.6,267.6-624.2c0-250.9-107.3-476.8-278.4-634.3L2601.3,1244.5L2601.3,1244.5z"/>
	<polygon class="st4" points="218.8,2077.6 2841.9,566.7 2841.9,1032.9 1038.9,2072 2838.6,3114.5 2838.6,3597.3 	"/>
</g>
<path class="st5" d="M5079.1,2166.9c0,324.4-273.9,592.2-598.3,592.2c-324.4,0-598.3-267.8-598.3-592.2s272.4-592.2,598.3-592.2
	C4805.2,1574.7,5079.1,1842.5,5079.1,2166.9z M3955.9,2166.9c0,284.6,237.2,523.3,524.9,523.3c286.1,0,524.9-240.2,524.9-523.3
	c0-284.6-238.7-523.3-524.9-523.3C4193.1,1643.5,3955.9,1882.3,3955.9,2166.9z"/>
<path class="st5" d="M5711,2036.8v423.9c0,71.9,1.5,143.8-42.8,203.5c-49,64.3-131.6,94.9-211.2,94.9s-162.2-30.6-211.2-94.9
	c-44.4-59.7-42.8-131.6-42.8-203.5v-423.9h68.9v399.4c0,136.2,15.3,258.6,185.2,258.6c169.8,0,185.2-122.4,185.2-258.6v-399.4H5711z
	"/>
<path class="st5" d="M5974.2,2743.8h-68.9v-642.7h-78v-64.3h78v-252.5h68.9v252.5h123.9v64.3h-123.9V2743.8z"/>
<path class="st5" d="M6476.1,2165.3c-23-49-68.9-79.6-123.9-79.6c-59.7,0-120.9,49-120.9,110.2c0,169.9,344.3,87.2,344.3,342.8
	c0,130.1-101,220.3-228,220.3c-117.8,0-214.2-71.9-243.3-186.7l67.3-21.4c26,84.2,82.6,143.8,176,143.8
	c88.8,0,159.1-70.4,159.1-159.1c0-87.2-67.3-114.8-137.7-139.2c-96.4-35.2-206.6-76.5-206.6-195.9c0-107.1,90.3-179,192.8-179
	c71.9,0,150,47.4,180.6,113.2L6476.1,2165.3z"/>
<path class="st5" d="M6838.8,1801.2c0,35.2-27.5,62.7-62.7,62.7c-35.2,0-62.7-27.5-62.7-62.7c0-33.7,27.5-62.7,62.7-62.7
	C6811.2,1738.4,6838.8,1767.5,6838.8,1801.2z M6809.7,2743.8h-68.9v-706.9h68.9V2743.8z"/>
<path class="st5" d="M7562.4,2616.7h-3.1c-52,90.3-165.3,142.3-269.3,142.3c-214.2,0-348.9-166.8-348.9-373.4
	s133.1-364.2,345.8-364.2c108.6,0,212.7,49,272.4,137.7h3.1v-677.9h68.9v1262.4h-68.9V2616.7z M7567,2378
	c0-163.7-111.7-292.3-283.1-292.3c-162.2,0-273.9,146.9-273.9,299.9c0,162.2,107.1,309.1,278.5,309.1
	C7469.1,2694.8,7567,2547.9,7567,2378z"/>
<path class="st5" d="M7816.4,2396.4c-4.6,179,119.4,298.4,283.1,298.4c110.2,0,198.9-65.8,249.4-160.7l58.1,33.7
	c-64.3,122.4-177.5,191.3-316.7,191.3c-209.6,0-342.8-169.9-342.8-370.3c0-197.4,136.2-367.2,342.8-367.2
	c214.2,0,341.2,171.4,339.7,374.9H7816.4z M8361.1,2332.1c-16.8-130.1-123.9-246.4-269.3-246.4c-143.8,0-263.2,113.2-275.4,246.4
	H8361.1z"/>
<path class="st6" d="M3400.1,3417.7h3.1l341.2-985.4h73.4l-419.3,1192l-414.7-1192h73.4L3400.1,3417.7z"/>
<path class="st6" d="M3963,3590h-68.9v-706.9h68.9V3590z"/>
<path class="st6" d="M4188,3238.7c-4.6,179,119.4,298.4,283.1,298.4c110.2,0,198.9-65.8,249.4-160.7l58.1,33.7
	c-64.3,122.4-177.5,191.3-316.7,191.3c-209.6,0-342.8-169.9-342.8-370.3c0-197.4,136.2-367.2,342.8-367.2
	c214.2,0,341.2,171.4,339.7,374.9H4188z M4732.7,3174.4c-16.8-130.1-123.9-246.4-269.3-246.4c-143.8,0-263.2,113.2-275.4,246.4
	H4732.7z"/>
<path class="st6" d="M5139.7,3459l249.4-618.2l251,618.2l244.8-579.9h70.4l-319.8,745.2l-249.4-610.5l-247.9,610.5l-318.3-745.2
	h70.4L5139.7,3459z"/>
<circle class="st6" cx="3935.1" cy="2682.1" r="62.7"/>
</svg>
